# xmcd
#
# Track frame offsets: 
#        150
#        38608
#        52223
#        64425
#        86842
#        105701
#        116499
#        141181
#        151795
#        171928
#        198852
#        217479
#        233135
#        249926
#        274950
#
# Disc length: 3938 seconds
#
# Revision: 1
# Processed by: cddbd v1.5.2PL0 Copyright (c) Steve Scherf et al.
# Submitted via: ExactAudioCopyFreeDBPlugin 1.0
#
DISCID=e00f600f
DTITLE=Bluebyrds - 1996 - Dont Ask Me Who's To Blame
DYEAR=1996
DGENRE=Blues
TTITLE0=Dont Ask Me Who's To Blame
TTITLE1=Locksmith
TTITLE2=Don't Let Me Down
TTITLE3=Lonesome Road Blues
TTITLE4=Going Back Home
TTITLE5=God Gave You Brains
TTITLE6=Boogie Man
TTITLE7=Leaving Blues
TTITLE8=I Love To Boogie
TTITLE9=Louisiana Swamp Nightmare
TTITLE10=Hard Wind Blowin'
TTITLE11=Bit Of Tenderness
TTITLE12=Out Of Blues
TTITLE13=Mountain Song
TTITLE14=Orient Shuffle
EXTD=
EXTT0=
EXTT1=
EXTT2=
EXTT3=
EXTT4=
EXTT5=
EXTT6=
EXTT7=
EXTT8=
EXTT9=
EXTT10=
EXTT11=
EXTT12=
EXTT13=
EXTT14=
PLAYORDER=
